PathFileType	4	(X/Y/Z)	F:\MotionCapture\20160217\3\Generated_files\EMG_Fprce_test01-Dynamic.trc
DataRate	CameraRate	NumFrames	NumMarkers	Units	OrigDataRate	OrigDataStartFrame	OrigNumFrames
120.00	120.00	       4	39	mm	120.00	427	       569
Frame#	Time	Top.Head			Front.Head			Rear.Head			R.Shoulder			R.Offset			R.Elbow			R.Wrist			L.Shoulder			L.Elbow			L.Wrist			R.ASIS			L.ASIS			V.Sacral			R.Thigh			R.Knee			R.Shank			R.Ankle			R.Heel			R.Toe			L.Thigh			L.Knee			L.Shank			L.Ankle			L.Heel			L.Toe			R1			R2			R3			R4			R5			R6			R7			L1			L2			L3			L4			L5			L6			L7			V_Mid_ASIS			V_Pelvis_Origin			V_R.Hip_JC			V_L.Hip_JC			V_R.Knee_JC			V_L.Knee_JC			V_R.Ankle_JC			V_L.Ankle_JC			V_Mid_Hip			V_Mid_Shoulder			V_R.Hand			V_L.Hand			V_R.Toe_Offset_Static			V_L.Toe_Offset_Static			V_R.Toe_Offset			V_L.Toe_Offset			
		X1	Y1	Z1	X2	Y2	Z2	X3	Y3	Z3	X4	Y4	Z4	X5	Y5	Z5	X6	Y6	Z6	X7	Y7	Z7	X8	Y8	Z8	X9	Y9	Z9	X10	Y10	Z10	X11	Y11	Z11	X12	Y12	Z12	X13	Y13	Z13	X14	Y14	Z14	X15	Y15	Z15	X16	Y16	Z16	X17	Y17	Z17	X18	Y18	Z18	X19	Y19	Z19	X20	Y20	Z20	X21	Y21	Z21	X22	Y22	Z22	X23	Y23	Z23	X24	Y24	Z24	X25	Y25	Z25	X26	Y26	Z26	X27	Y27	Z27	X28	Y28	Z28	X29	Y29	Z29	X30	Y30	Z30	X31	Y31	Z31	X32	Y32	Z32	X33	Y33	Z33	X34	Y34	Z34	X35	Y35	Z35	X36	Y36	Z36	X37	Y37	Z37	X38	Y38	Z38	X39	Y39	Z39	

427	3.550	-1352.45471	205.59676	1685.71338	-1460.49658	177.29340	1602.40381	-1242.60803	217.80034	1617.03845	-1289.08276	387.70544	1381.10388	-1160.35315	119.33211	1236.15674	-1298.88782	519.53625	1067.91968	-1533.28223	491.95569	957.10571	-1316.71509	-19.38001	1384.93811	-1201.17456	-138.72673	1100.64160	-1194.23853	-204.12833	850.28558				-1395.04321	55.79146	909.97412	-1148.02356	145.29501	904.14209	-1184.89465	299.01569	437.24866	-1294.46533	280.87503	524.07037							-922.14978	188.85751	70.91154	-1124.93628	253.62233	36.86489	-1518.98718	96.00546	634.35486	-1510.86206	36.39454	468.06937	-1582.03540	110.05822	351.84619	-1636.08008	47.59990	80.11281	-1588.47571	109.54668	36.70947	-1769.22058	57.47881	119.60584	-1174.76453	238.18927	33.81694	-1135.03870	215.88005	43.54594	-1043.92627	172.76236	59.16946	-970.89587	163.67210	60.89120	-948.59088	235.26172	64.10841	-1017.41913	271.25415	39.85588	-1080.21509	293.31485	33.25508	-1807.76794	80.36671	139.84044	-1780.49475	94.24049	128.36252	-1697.26477	136.70207	99.37537	-1624.50415	139.36955	57.90045	-1614.02771	69.35844	45.33673	-1688.24084	38.52579	66.93860	-1741.09509	31.18550	96.07803																																																	-1105.53418	207.46068	220.79007	-987.12677	258.70157	84.13694	-1336.94470	340.79742	906.82062	
428	3.558	-1365.28149	205.45763	1683.59302	-1472.97559	176.85579	1600.14783	-1255.22705	217.60670	1615.15076	-1301.20105	386.98578	1378.98486	-1173.11682	118.93327	1233.67151	-1311.56848	518.09576	1065.50476	-1546.94385	490.82028	956.35504	-1328.10876	-19.88524	1383.27026	-1211.61658	-139.33020	1099.67883	-1202.62146	-203.87932	848.97485				-1408.36426	56.25412	907.88501	-1161.33948	143.81375	901.72644	-1192.90564	299.86414	436.12994	-1303.57800	281.90884	521.69501							-923.51208	189.04507	75.15550	-1125.15222	253.83577	36.86361	-1532.01880	98.26181	634.26587	-1524.25317	37.24911	466.38190	-1595.03638	111.58752	349.87372	-1648.53455	49.74151	77.60114	-1600.82129	111.96059	34.47506	-1782.28040	59.12458	117.98528	-1174.78174	238.25261	33.73039	-1135.12000	216.06963	43.52555	-1044.83228	173.10410	61.04829	-972.12317	163.94998	64.50310	-949.75366	235.66127	67.38779	-1017.59814	271.53281	40.73993	-1080.26355	293.24103	33.60135	-1820.42334	82.27295	138.03812	-1793.44458	95.16901	126.69307	-1710.33984	138.60640	97.48674	-1638.10083	142.15170	55.22812	-1626.49573	71.33569	43.78371	-1701.14612	40.16244	65.33617	-1754.35754	32.35445	94.67763																																																	-1109.73254	208.24158	220.89037	-988.29797	259.19891	85.65645	-1348.85718	341.65921	904.26923	3472.11694	-1402.84412	-1654.95117	
429	3.567	-1377.21130	204.80252	1681.76050	-1484.81836	176.46365	1598.25964	-1266.69519	216.60271	1613.23035	-1313.51831	386.42493	1377.20313	-1186.11255	118.53571	1231.13074	-1324.74719	517.44037	1063.45435	-1560.11804	490.02853	955.13373	-1340.08203	-20.57312	1381.53699	-1222.51599	-139.80273	1098.47229	-1212.56873	-204.26054	847.95514				-1422.19751	56.37408	905.95074	-1174.01892	142.32426	900.12054	-1201.73035	301.12839	434.95908	-1313.60718	283.30569	519.79578							-923.83771	188.93893	79.67000	-1125.33411	253.95116	36.93696	-1545.60059	100.40159	634.34619	-1537.57153	38.13950	464.42484	-1607.47498	113.04381	347.34909	-1659.24585	50.79302	75.08165	-1613.37463	114.64156	31.40111	-1793.13977	60.71721	114.76284	-1174.81372	238.29024	33.68594	-1134.32837	216.80193	42.69208	-1046.06934	173.76250	63.19988	-973.05939	164.97803	67.99412	-949.02081	237.50961	72.58631	-1018.29193	272.27692	42.68695	-1080.40613	293.29089	33.61401	-1831.94006	83.98127	134.42294	-1804.15259	97.43868	123.08376	-1720.92236	140.31854	94.32774	-1648.69617	143.71417	52.05524	-1636.30420	72.68932	40.66326	-1711.63672	41.88482	62.08458	-1764.65063	34.67308	91.05580																																																	-1114.12354	209.38315	221.18373	-1361.32385	341.35455	902.24219	-993.35846	263.61951	88.65987	3467.85864	-1402.20142	-1671.13843	
430	3.575	-1389.76770	204.70541	1679.95581	-1497.32593	175.63268	1596.50513	-1279.70190	216.59579	1611.71948	-1325.58655	385.48230	1375.53735	-1197.89832	117.86387	1228.98865	-1337.30896	515.90802	1062.04077	-1573.01758	488.82565	953.83820	-1351.83716	-21.16033	1380.03528	-1233.50989	-140.33199	1097.34473	-1222.91772	-204.63295	846.78748				-1435.96899	56.34299	904.57782	-1188.05554	141.19873	898.45282	-1211.26538	302.20288	433.92526	-1324.12244	284.48657	518.05627							-926.25299	189.96288	85.55039	-1125.55408	254.16368	37.04158	-1559.93188	102.55373	634.75250	-1551.51746	39.09116	463.33426	-1619.81140	114.27432	344.56195	-1666.99304	54.00705	70.45638	-1618.84619	115.92783	30.53418	-1801.44629	63.72692	109.01173	-1174.86597	238.31906	33.60030	-1134.66040	217.09552	42.77235	-1047.73840	174.59644	65.99905	-975.02203	165.58530	72.47569	-952.25946	237.14658	75.91483	-1019.26874	272.96042	44.34827	-1080.55847	293.27542	33.59049	-1840.94080	86.62771	128.88045	-1813.11951	100.00519	118.22670	-1729.31689	142.95482	89.90976	-1656.21362	145.88774	48.60543	-1645.40234	74.82217	37.39269	-1719.94434	44.01079	58.37819	-1773.27295	36.79528	86.66279																																																	-1119.10620	210.36575	221.92653	-1003.65900	267.10233	87.68692	3464.46167	-1400.61792	-1686.06555	-1373.64917	341.60129	899.88538	-1441.83777	78.84007	-99.29554	-1436.05994	-30.06667	-102.99336	
